<svg viewBox="0 0 100 32" version="1.1" xmlns="http://www.w3.org/2000/svg" preserveAspectRatio="none" class="SparkLine__Svg-sc-9wg5ja-0 cdfFYq"><path d="M 0,21.590288612528532 C 1.137152454387943e-18,21.608859721442215 -0.2,21.562376347035496 0,21.683144157096947 C 0.2,21.8039119671584 0.6,22.15075800728886 1,22.19412766283579 C 1.4,22.23749731838272 1.8,21.993848817604942 2,21.899992434831596 C 2.2,21.80613605205825 1.8,21.61664401859171 2,21.724845748969052 C 2.2,21.833047479346394 2.6,22.38239644960746 3,22.441001086718313 C 3.4,22.499605723829166 3.8,22.121177678121004 4,22.01786893452332 C 4.2,21.914560190925638 3.8,21.90666468953116 4,21.9244573687299 C 4.2,21.942250047928642 4.6,22.129851609230396 5,22.106832330517022 C 5.4,22.08381305180365 5.8,21.946698217728315 6,21.809360975163038 C 6.2,21.67202373259776 5.8,21.630878161950708 6,21.42014611769064 C 6.2,21.20941407343057 6.6,20.81341575701361 7,20.755700753862698 C 7.4,20.697985750711787 7.8,21.10461590414118 8,21.13157110193609 C 8.2,21.158526299730998 7.8,20.903173053469217 8,20.890476742837247 C 8.2,20.877780432205277 8.6,21.01397053706067 9,21.068089548776243 C 9.4,21.122208560491817 9.8,21.155726713838273 10,21.16107180141512 C 10.2,21.166416888991964 9.8,21.005730193713006 10,21.094814986660467 C 10.2,21.183899779607927 10.6,21.505273170165868 11,21.60649576615242 C 11.4,21.707718362138973 11.6,21.46963925298691 12,21.600927966593222 C 12.4,21.732216680199535 12.8,22.214165410045254 13,22.262939334183983 C 13.2,22.311713258322712 12.8,21.774420600858374 13,21.844797587286866 C 13.2,21.91517457371536 13.6,22.41883772184205 14,22.61482426632645 C 14.4,22.810810810810853 14.8,22.85435100336391 15,22.82473030970887 C 15.2,22.79510961605383 14.8,22.559146270734225 15,22.466720798051245 C 15.2,22.374295325368266 15.6,22.46961605382209 16,22.362602946293972 C 16.4,22.255589838765854 16.8,21.99401461547388 17,21.93165526041066 C 17.2,21.869295905347442 16.8,21.982656304373084 17,22.050806170977882 C 17.2,22.11895603758268 17.6,22.22830762092567 18,22.272404593434658 C 18.4,22.316501565943646 18.8,22.344563275722095 19,22.271291033522818 C 19.2,22.19801879132354 18.8,21.992566987588496 19,21.906043382438273 C 19.2,21.81951977728805 19.6,21.857714882264236 20,21.83867300777171 C 20.4,21.819631133279184 20.8,21.94702238719406 21,21.81083400997564 C 21.2,21.67464563275722 20.8,21.25282913815101 21,21.1577311216796 C 21.2,21.06263310520819 21.6,21.20249623013569 22,21.33534392761859 C 22.4,21.468191625101493 22.8,21.742906855353237 23,21.82196960909411 C 23.2,21.901032362834986 22.8,21.751481266674425 23,21.730657696322957 C 23.2,21.70983412597149 23.6,21.66217376174462 24,21.717851757336767 C 24.4,21.773529752928916 24.6,21.935664076093254 25,22.009047674283707 C 25.4,22.08243127247416 25.8,22.104368402737467 26,22.08476974828903 C 26.2,22.065171093840593 25.8,21.94924950701773 26,21.911054402041515 C 26.2,21.8728592970653 26.6,21.944349843405632 27,21.89379422340796 C 27.4,21.843238603410285 27.8,21.64491358311103 28,21.658276302053153 C 28.2,21.671639020995276 27.8,21.716070061477808 28,21.960607818118568 C 28.2,22.205145574759328 28.6,22.7251780535901 29,22.88096508525696 C 29.4,23.03675211692382 29.8,22.745890267950376 30,22.739542976452867 C 30.2,22.73319568495536 29.8,22.883860341027745 30,22.849228627769417 C 30.2,22.81459691451109 30.6,22.48420368866721 31,22.566384410161234 C 31.4,22.648565131655257 31.8,23.078510613617922 32,23.26013223523954 C 32.2,23.441753856861155 31.8,23.57627189421178 32,23.474492518269315 C 32.2,23.37271314232685 32.6,22.91314696670921 33,22.751235355527225 C 33.4,22.58932374434524 33.8,22.681303793063485 34,22.664934462359387 C 34.2,22.64856513165529 33.8,22.62518037350658 34,22.669388702006742 C 34.2,22.713597030506904 34.6,22.716269574295307 35,22.8859761048602 C 35.4,23.055682635425097 35.8,23.528834241967274 36,23.517921354831216 C 36.2,23.507008467695158 35.8,22.860475582879005 36,22.831411669179907 C 36.2,22.80234775548081 36.6,23.07015891427912 37,23.372601786335725 C 37.4,23.67504465839233 37.6,24.10732861616982 38,24.343626029462936 C 38.4,24.57992344275605 38.8,24.537942234079583 39,24.55408885280131 C 39.2,24.570235471523038 38.8,24.466006263774513 39,24.424359123071575 C 39.2,24.382711982368637 39.6,24.284384642152865 40,24.34585314928661 C 40.4,24.407321656420358 40.8,24.692949773808163 41,24.731701658740302 C 41.2,24.770453543672442 40.8,24.623686347291475 41,24.539612573947316 C 41.2,24.455538800603158 41.6,24.33716738197426 42,24.311332792019506 C 42.4,24.28549820206475 42.8,24.411664540076572 43,24.41043962417354 C 43.2,24.40921470827051 42.8,24.247414453079703 43,24.305208212504354 C 43.2,24.363001971929005 43.6,24.477364574875278 44,24.699408421296802 C 44.4,24.921452267718326 44.8,24.755309128871332 45,25.41542744461197 C 45.2,26.07554576035261 44.8,27.975835749912996 45,28 C 45.2,28.024164250087004 45.6,25.769762208560504 46,25.536248695046993 C 46.4,25.302735181533482 46.8,26.639452499710018 47,26.832432432432444 C 47.2,27.02541236515487 46.8,26.68778099988404 47,26.501148358659123 C 47.2,26.314515717434205 47.6,25.945481962649364 48,25.899269226307858 C 48.4,25.853056489966352 48.6,26.195921586822852 49,26.2700846769516 C 49.4,26.34424776708035 49.8,26.270418744925145 50,26.2700846769516 C 50.2,26.269750608978057 49.8,26.427876116459817 50,26.26841433708388 C 50.2,26.10895255770794 50.6,26.00895487762439 51,25.472775780071906 C 51.4,24.936596682519422 51.8,24.045414685071364 52,23.58751884932146 C 52.2,23.129623013571553 51.8,23.283962417353 52,23.183296601322375 C 52.2,23.08263078529175 52.6,22.978290221552065 53,23.084189769168344 C 53.4,23.190089316784622 53.8,23.594200208792465 54,23.71279433940376 C 54.2,23.831388470015057 53.8,23.666692959053478 54,23.677160422224816 C 54.2,23.687627885396154 54.6,23.690300429184603 55,23.765131655260454 C 55.4,23.839962881336305 55.8,23.98027143022849 56,24.051316552604074 C 56.2,24.122361674979658 55.8,24.227370374666478 56,24.120357267138363 C 56.2,24.01334415961025 56.6,23.563911379190383 57,23.516251014963494 C 57.4,23.468590650736605 57.8,23.700767892355863 58,23.882055446003918 C 58.2,24.063342999651972 57.8,24.588609210068398 58,24.422688783203775 C 58.2,24.25676835633915 58.6,23.273160886208117 59,23.0524533116808 C 59.4,22.831745737153483 59.8,23.53117271778213 60,23.319150910567192 C 60.2,23.107129103352253 59.8,22.157596566523633 60,21.99234427560611 C 60.2,21.82709198468859 60.6,22.30068901519546 61,22.49288945597959 C 61.4,22.68508989676372 61.6,23.13853149286628 62,22.953346479526765 C 62.4,22.768161466187248 62.8,22.49233267602368 63,21.566964389282 C 63.2,20.64159610254032 62.8,19.25454587634848 63,18.326505045818372 C 63.2,17.398464215288264 63.6,17.196241735297498 64,16.926760236631452 C 64.4,16.657278737965406 64.8,16.962616865792853 65,16.979097552488142 C 65.2,16.99557823918343 64.8,16.98243823222366 65,17.00916367010789 C 65.2,17.035889107992116 65.6,17.04279317944554 66,17.112724741909282 C 66.4,17.182656304373026 66.8,17.30670687855234 67,17.358821482426603 C 67.2,17.410936086300865 66.8,17.56594362602946 67,17.373297761280593 C 67.2,17.180651896531728 67.6,16.97742721262033 68,16.39559215868227 C 68.4,15.813757104744209 68.8,15.794492518269328 69,14.464122491590285 C 69.2,13.133752464911241 68.8,11.112418512933504 69,9.743742025287055 C 69.2,8.375065537640607 69.6,8.08977148822638 70,7.620740053358046 C 70.4,7.151708618489713 70.8,7.512502029926943 71,7.39858485094539 C 71.2,7.284667671963837 70.8,7.0812202760700576 71,7.051154158450281 C 71.2,7.021088040830504 71.6,6.876770676255615 72,7.2482542628465065 C 72.4,7.619737849437398 72.8,8.93251362950936 73,8.90857209140474 C 73.2,8.884630553300118 72.8,7.2845563159726465 73,7.128546572323402 C 73.2,6.972536828674158 73.6,8.12139658972273 74,8.128523373158519 C 74.4,8.135650156594307 74.6,7.2923512353554925 75,7.164180489502347 C 75.4,7.036009743649202 75.8,7.412170281869819 76,7.48766964389279 C 76.2,7.5631690059157615 75.8,7.789444380002307 76,7.541677299617203 C 76.2,7.293910219232099 76.6,6.355958705486578 77,6.24883424196727 C 77.4,6.141709778447962 77.8,7.097700962765361 78,7.006054982020662 C 78.2,6.9144090012759625 77.8,5.960199512817492 78,5.790604338243774 C 78.2,5.621009163670057 78.6,6.20295557359934 79,6.158079109152073 C 79.4,6.113202644704806 79.8,5.997837837837854 80,5.56622201600744 C 80.2,5.134606194177025 79.8,4.0650318988516485 80,4 C 80.2,3.934968101148352 80.6,4.516469087112854 81,5.241062521749199 C 81.4,5.965655956385544 81.8,7.13522793179441 82,7.622967173181725 C 82.2,8.11070641456904 81.8,7.4816564203688705 82,7.6797587286857745 C 82.2,7.8778610370026785 82.6,8.539538336619865 83,8.613478714766245 C 83.4,8.687419092912625 83.8,8.157587286857648 84,8.049460619417676 C 84.2,7.941333951977704 83.8,8.078969957081526 84,8.072845377566384 C 84.2,8.066720798051243 84.6,7.70147314696667 85,8.018837721841972 C 85.4,8.336202296717275 85.8,9.559670571859376 86,9.659668251942897 C 86.2,9.759665932026417 85.8,8.73185013339517 86,8.51882612225957 C 86.2,8.30580211112397 86.6,8.368495534160731 87,8.594548196264894 C 87.4,8.820600858369056 87.6,9.60911263194521 88,9.649089432780382 C 88.4,9.689066233615554 88.8,9.04821250434981 89,8.794432200440756 C 89.2,8.540651896531703 88.8,8.501677299617208 89,8.380187913235115 C 89.2,8.258698526853022 89.6,8.291103120287625 90,8.186985268530291 C 90.4,8.082867416772958 90.8,7.918171905811395 91,7.8595986544484475 C 91.2,7.8010254030855 90.8,7.740225031898827 91,7.894119011715553 C 91.2,8.048012991532278 91.6,8.390544020415263 92,8.629068553532075 C 92.4,8.867593086648888 92.8,9.047433012411545 93,9.086741677299614 C 93.2,9.126050342187682 92.8,8.998993156246406 93,8.825611877972419 C 93.2,8.65223059969843 93.6,8.452346595522538 94,8.219835285929676 C 94.4,7.987323976336813 94.8,7.8040320148474445 95,7.663055330008104 C 95.2,7.522078645168764 94.8,7.4714116691799015 95,7.514951861732976 C 95.2,7.55849205428605 95.6,7.631764296485342 96,7.8807562927734764 C 96.4,8.129748289061611 96.8,8.647999072033425 97,8.75991184317365 C 97.2,8.871824614313876 96.8,8.519716970189027 97,8.440320148474608 C 97.2,8.36092332676019 97.6,8.602454471639023 98,8.362927734601563 C 98.4,8.123400997564103 98.8,7.466734717550159 99,7.242686463287308" class="SparkLine__Path-sc-9wg5ja-1 kDnVnu"></path></svg>