<svg width="893" height="488" viewBox="0 0 893 488" fill="none" xmlns="http://www.w3.org/2000/svg"><path d="M648.38 487.368c134.584 0 243.685-109.101 243.685-243.684S782.964 0 648.38 0C513.797 0 404.696 109.101 404.696 243.684S513.797 487.368 648.38 487.368z" fill="#FFF1E0"/><path d="M762.462 213.832c5.118-34.138-20.913-52.494-56.48-64.742l11.54-46.255-28.166-7.003-11.247 45.033c-7.4-1.856-14.996-3.583-22.576-5.309l11.329-45.327-28.167-7.02-11.54 46.239c-6.129-1.401-12.16-2.769-17.995-4.234l.032-.147-38.859-9.691-7.498 30.066s20.913 4.789 20.473 5.082c11.41 2.85 13.464 10.391 13.121 16.385l-13.137 52.689a24.95 24.95 0 012.934.928l-2.983-.733-18.419 73.813c-1.402 3.453-4.939 8.649-12.926 6.678.293.407-20.473-5.098-20.473-5.098l-13.986 32.216 36.675 9.137c6.814 1.71 13.497 3.502 20.066 5.18l-11.655 46.776 28.15 7.004 11.541-46.256a1291.296 1291.296 0 0022.461 5.815l-11.507 46.06 28.166 7.003 11.654-46.679c48.053 9.089 84.174 5.424 99.382-37.998 12.257-34.952-.603-55.132-25.885-68.275 18.419-4.235 32.274-16.336 35.975-41.337zm-64.386 90.198c-8.688 34.969-67.612 16.059-86.716 11.32l15.485-61.973c19.104 4.772 80.343 14.202 71.231 50.653zm8.721-90.703c-7.938 31.809-56.969 15.636-72.861 11.678l14.018-56.191c15.892 3.958 67.123 11.336 58.843 44.513z" fill="#fff"/><path d="M437.428 487.368c134.583 0 243.685-109.101 243.685-243.684S572.011 0 437.428 0 193.744 109.101 193.744 243.684s109.101 243.684 243.684 243.684z" fill="#FFDEB6"/><path d="M551.509 213.832c5.119-34.138-20.913-52.494-56.479-64.742l11.54-46.255-28.166-7.003-11.247 45.033c-7.401-1.856-14.996-3.583-22.576-5.309l11.329-45.327-28.167-7.02-11.54 46.239c-6.129-1.401-12.16-2.769-17.995-4.234l.032-.147-38.859-9.691-7.498 30.066s20.913 4.789 20.473 5.082c11.41 2.85 13.464 10.391 13.121 16.385l-13.138 52.689c.783.195 1.793.488 2.934.928l-2.982-.733-18.42 73.813c-1.401 3.453-4.938 8.649-12.925 6.678.293.407-20.473-5.098-20.473-5.098l-13.986 32.216 36.675 9.137c6.814 1.71 13.497 3.502 20.066 5.18l-11.655 46.776 28.15 7.004 11.541-46.256a1288.972 1288.972 0 0022.461 5.815l-11.508 46.06 28.167 7.003 11.654-46.679c48.053 9.089 84.174 5.424 99.382-37.998 12.257-34.952-.603-55.132-25.885-68.275 18.419-4.235 32.274-16.336 35.974-41.337zm-64.385 90.198c-8.688 34.969-67.612 16.059-86.716 11.32l15.485-61.973c19.104 4.772 80.343 14.202 71.231 50.653zm8.721-90.703c-7.938 31.809-56.969 15.636-72.861 11.678l14.018-56.191c15.892 3.958 67.123 11.336 58.843 44.513z" fill="#fff"/><path d="M243.684 487.368c134.583 0 243.684-109.101 243.684-243.684S378.267 0 243.684 0 0 109.101 0 243.684s109.101 243.684 243.684 243.684z" fill="#F7931A"/><path d="M357.765 213.832c5.118-34.138-20.913-52.494-56.479-64.742l11.54-46.255-28.166-7.003-11.247 45.033c-7.401-1.856-14.996-3.583-22.576-5.309l11.329-45.327-28.167-7.02-11.54 46.239c-6.129-1.401-12.16-2.769-17.996-4.234l.033-.147-38.859-9.691-7.498 30.066s20.913 4.789 20.473 5.082c11.41 2.85 13.463 10.391 13.121 16.385l-13.138 52.689c.783.195 1.793.488 2.934.928l-2.983-.733-18.419 73.813c-1.401 3.453-4.939 8.649-12.926 6.678.294.407-20.472-5.098-20.472-5.098l-13.986 32.216 36.675 9.137c6.814 1.71 13.497 3.502 20.066 5.18l-11.655 46.776 28.15 7.004 11.541-46.256a1288.972 1288.972 0 0022.461 5.815l-11.508 46.06 28.167 7.003 11.654-46.679c48.053 9.089 84.174 5.424 99.382-37.998 12.257-34.952-.604-55.132-25.885-68.275 18.419-4.235 32.274-16.336 35.974-41.337zM293.38 304.03c-8.688 34.969-67.612 16.059-86.716 11.32l15.485-61.973c19.104 4.772 80.343 14.202 71.231 50.653zm8.721-90.703c-7.938 31.809-56.969 15.636-72.862 11.678l14.018-56.191c15.893 3.958 67.124 11.336 58.844 44.513z" fill="#fff"/></svg>