




<svg width="892" height="488" xmlns="http://www.w3.org/2000/svg">
 <g>
  <title>Layer 1</title>
  <circle cx="649.99997" cy="243.50003" r="238.49997" fill="#d9edf9" id="svg_1"/>
  <g fill="#fff" id="svg_2" fill-opacity="0.6">
   <path d="m808.03632,136.48724a30.40008,62.21552 0 0 0 -4.06317,-27.54544c-2.11633,-8.66209 -5.88324,-15.41856 -10.2851,-18.88337a30.37045,62.15488 0 0 0 -14.47522,-6.4966h-187.83923l-13.45947,82.5498h170.1897l-26.87653,168.7377h-170.14734l-13.45941,82.5498h188.72815a52.12984,106.68673 0 0 0 16.46448,-6.49655c5.29065,-6.15012 11.34314,-12.38681 16.46448,-21.04889a80.98717,165.74492 0 0 0 13.45947,-27.54553a91.46478,187.18794 0 0 0 8.29572,-31.78986l24.92957,-160.4221a29.07318,59.49995 0 0 0 2.07391,-33.60896l0,0z" id="svg_3" fill="#ffffff"/>
   <path d="m644.99963,212.19398h-100.14148l-13.45941,76.31313h101.15729l12.4436,-76.31313z" id="svg_4" fill="#ffffff"/>
  </g>
  <circle cx="449.50003" cy="243.99999" r="242.49999" fill="#b0d8f4" id="svg_5"/>
  <g fill="#fff" id="svg_6" fill-opacity="0.6">
   <path d="m604.61102,130.02301a31.6072,62.2155 0 0 0 -4.22504,-27.54571c-2.20001,-8.6621 -6.117,-15.4185 -10.69299,-18.8833a31.5764,62.1548 0 0 0 -15.04999,-6.4966h-195.298l-13.99399,82.54961h176.948l-27.94403,168.73801h-176.90399l-13.99399,82.54898h196.22299a54.1998,106.687 0 0 0 17.11798,-6.496c5.50104,-6.14999 11.79303,-12.38699 17.11804,-21.04898a84.203,165.745 0 0 0 13.99396,-27.54602a95.0966,187.188 0 0 0 8.625,-31.789l25.92004,-160.42198a30.2276,59.4999 0 0 0 2.15601,-33.60899l0,0l0,0l0,0l0,0z" id="svg_7" fill="#ffffff"/>
   <path d="m435.10034,205.72937h-104.11783l-13.9939,76.31305h105.17404l12.93768,-76.31305z" id="svg_8" fill="#ffffff"/>
  </g>
  <circle cx="243.5" cy="244.50004" r="242.49997" fill="#2573c2" id="svg_9"/>
  <g fill="#fff" id="svg_10">
   <path d="m394.604,131.181a32.1559,62.4019 0 0 0 -4.298,-27.628c-2.23801,-8.688 -6.22299,-15.4647 -10.879,-18.9399a32.1245,62.341 0 0 0 -15.311,-6.516h-198.68898l-14.23602,82.7969h180.019l-28.42899,169.243h-179.97401l-14.237,82.797h199.628a55.1407,107.006 0 0 0 17.41602,-6.51599c5.59598,-6.168 11.99799,-12.42401 17.41498,-21.112a85.6647,166.241 0 0 0 14.237,-27.62799a96.7475,187.74899 0 0 0 8.77499,-31.88501l26.36902,-160.90199a30.7524,59.6782 0 0 0 2.194,-33.71001l0,0l0,0z" id="svg_11"/>
   <path d="m222.15071,207.1145h-105.92529l-14.2368,76.54169h106.99979l13.16231,-76.54169z" id="svg_12"/>
  </g>
 </g>
</svg>