<svg width="892" height="488" viewBox="0 0 892 488" fill="none" xmlns="http://www.w3.org/2000/svg"><path d="M647.685 487.37c134.584 0 243.685-109.101 243.685-243.685S782.269 0 647.685 0 404 109.101 404 243.685 513.101 487.37 647.685 487.37z" fill="#E7ECFF"/><path d="M655.27 60.921v135.093l114.182 51.022L655.27 60.921z" fill="#fff" fill-opacity=".602"/><path d="M655.27 60.921L541.073 247.036l114.197-51.022V60.921z" fill="#fff"/><path d="M655.27 334.579v91.793l114.258-158.075-114.258 66.282z" fill="#fff" fill-opacity=".602"/><path d="M655.27 426.372v-91.808l-114.197-66.267L655.27 426.372z" fill="#fff"/><path d="M655.27 313.335l114.182-66.298-114.182-50.991v117.289z" fill="#fff" fill-opacity=".2"/><path d="M541.073 247.037l114.197 66.298V196.046l-114.197 50.991z" fill="#fff" fill-opacity=".602"/><path d="M437.685 487.37c134.584 0 243.685-109.101 243.685-243.685S572.269 0 437.685 0 194 109.101 194 243.685 303.101 487.37 437.685 487.37z" fill="#C2CEFF"/><path d="M445.27 60.921v135.093l114.182 51.022L445.27 60.921z" fill="#fff" fill-opacity=".602"/><path d="M445.27 60.921L331.073 247.036l114.197-51.022V60.921z" fill="#fff"/><path d="M445.27 334.579v91.793l114.258-158.075-114.258 66.282z" fill="#fff" fill-opacity=".602"/><path d="M445.27 426.372v-91.808l-114.197-66.267L445.27 426.372z" fill="#fff"/><path d="M445.27 313.335l114.182-66.298-114.182-50.991v117.289z" fill="#fff" fill-opacity=".2"/><path d="M331.073 247.037l114.197 66.298V196.046l-114.197 50.991z" fill="#fff" fill-opacity=".602"/><path d="M243.685 487.37c134.583 0 243.685-109.102 243.685-243.685C487.37 109.101 378.268 0 243.685 0 109.101 0 0 109.101 0 243.685 0 378.268 109.101 487.37 243.685 487.37z" fill="#627EEA"/><path d="M244.197 60.921v135.093l114.182 51.022L244.197 60.921z" fill="#fff" fill-opacity=".602"/><path d="M244.197 60.921L130 247.036l114.197-51.022V60.921z" fill="#fff"/><path d="M244.197 334.579v91.793l114.258-158.075-114.258 66.282z" fill="#fff" fill-opacity=".602"/><path d="M244.197 426.372v-91.808L130 268.297l114.197 158.075z" fill="#fff"/><path d="M244.197 313.335l114.182-66.298-114.182-50.991v117.289z" fill="#fff" fill-opacity=".2"/><path d="M130 247.037l114.197 66.298V196.046L130 247.037z" fill="#fff" fill-opacity=".602"/></svg>