<svg width="892" height="488" viewBox="0 0 892 488" fill="none" xmlns="http://www.w3.org/2000/svg"><path d="M647.685 487.37c134.584 0 243.685-109.101 243.685-243.685S782.269 0 647.685 0 404 109.101 404 243.685 513.101 487.37 647.685 487.37z" fill="#F0EEEE"/><path fill-rule="evenodd" clip-rule="evenodd" d="M562.807 292.635l-21.734 8.438 10.479-42.021 21.992-8.833 31.695-128.377h78.116l-23.135 94.367 21.475-8.696-10.357 41.883-21.734 8.697-12.915 53.047h117.609l-13.296 54.387H544.911l17.896-72.892z" fill="#fff"/><path d="M437.685 487.37c134.584 0 243.685-109.101 243.685-243.685S572.269 0 437.685 0 194 109.101 194 243.685 303.101 487.37 437.685 487.37z" fill="#DFDFDF"/><path fill-rule="evenodd" clip-rule="evenodd" d="M352.807 292.635l-21.734 8.438 10.479-42.021 21.992-8.833 31.695-128.377h78.116l-23.135 94.367 21.475-8.696-10.357 41.883-21.734 8.697-12.915 53.047h117.609l-13.296 54.387H334.911l17.896-72.892z" fill="#fff"/><path d="M243.685 487.37c134.584 0 243.685-109.101 243.685-243.685S378.269 0 243.685 0 0 109.101 0 243.685 109.101 487.37 243.685 487.37z" fill="#BFBBBB"/><path fill-rule="evenodd" clip-rule="evenodd" d="M158.807 292.635l-21.734 8.438 10.479-42.021 21.992-8.833 31.695-128.377h78.116l-23.135 94.367 21.475-8.696-10.357 41.883-21.734 8.697-12.915 53.047h117.609l-13.296 54.387H140.911l17.896-72.892z" fill="#fff"/></svg>