<svg width="2180" height="1000" xmlns="http://www.w3.org/2000/svg">
 <!-- Created with SVG-edit - http://svg-edit.googlecode.com/ -->
 <g display="inline">
  <title>Layer 1</title>
  <path fill="#f7fafc" stroke="#000000" stroke-width="0" d="m-96.61037,610.1712l1777.83889,-608.69475l493.521,-0.37443l1.8606,199.69383l0,-0.67355l-2340.59911,861.97768l2.40637,-436.30585l4.45171,0l60.52055,-15.62292l0,0l0,0z" id="svg_1"/>
  <path fill="#f7fafc" stroke="#ccc9c9" stroke-linejoin="null" stroke-linecap="null" d="m300.00781,553.51831l240.95911,-96.41675l64.04089,65.78088l-245.31848,99.21912l-59.68152,-68.58325z" id="svg_2" stroke-opacity="0.34"/>
  <path fill="#212d63" stroke="#000000" stroke-linejoin="null" stroke-linecap="null" d="m3.02343,828.36731l386.34974,-138.2652l51.63489,69.8396l-438.00554,164.1604l0.02092,-95.7348l-0.00001,0z" id="svg_3" stroke-width="0"/>
  <path fill="#5469d4" stroke="#000000" stroke-linejoin="null" stroke-linecap="null" d="m1.00781,923.13379l521.88135,-195.03223l60.11877,61.32959l-582.00012,217.67041l0,-83.96777z" id="svg_5" stroke-width="0"/>
  <path fill="#e3e8ee" stroke="#000000" stroke-linejoin="null" stroke-linecap="null" d="m580.00781,787.388l237.2558,-89.28644l49.7442,69.328l-225.73022,84.672l-61.26978,-64.71356z" id="svg_6" stroke-width="0"/>
  <path fill="#7fd3ed" stroke="#000000" stroke-linejoin="null" stroke-linecap="null" d="m1688.09839,-4.99659l-146.09045,51.60732l34.74268,62.49083l255.2572,-111.16599l-143.90942,-2.93217z" id="svg_7" stroke-width="0"/>
  <path fill="#5469d4" stroke="#000000" stroke-linejoin="null" stroke-linecap="null" d="m1827.98914,-2.99756l-320.98132,141.35657l22.51343,79.74254l471.48657,-220.96413l-173.01868,-0.13498z" id="svg_8" stroke-width="0"/>
  <path fill="#e3e8ee" stroke="#000000" stroke-linejoin="null" stroke-linecap="null" d="m2003.59265,-3.9981l-271.58289,126.76504l47.72986,71.33513l377.27014,-194.89458l-153.41711,-3.20559l0,0.00001z" id="svg_9" stroke-width="0"/>
  <path transform="rotate(-55, 1724.31, 261.759)" fill="#f7fafc" stroke="#000000" stroke-linejoin="null" stroke-linecap="null" d="m1783.10034,342.74915l-148.07886,-91.26785l27.38086,-70.71284l151.19934,89.65691l-30.50134,72.32379z" id="svg_10" stroke-opacity="0.05"/>
 </g>
</svg>