<svg xmlns="http://www.w3.org/2000/svg" xmlns:xlink="http://www.w3.org/1999/xlink" width="311" height="109" viewBox="0 0 311 109">
    <defs>
        <path id="a" d="M-105-288H998v1368H-105z"/>
        <mask id="b" width="1103" height="1368" x="0" y="0" fill="#fff">
            <use xlink:href="#a"/>
        </mask>
    </defs>
    <g fill="none" fill-rule="evenodd">
        <g fill="#3E83FF">
            <path d="M158.887 54.79v11.906h-5.025V56.41c0-2.72-1.353-4.187-3.653-4.187-2.165 0-3.963 1.389-3.963 4.226v10.246h-5.044V56.41c0-2.72-1.334-4.187-3.653-4.187-2.165 0-3.963 1.389-3.963 4.226v10.246h-5.044V47.998h4.909v2.2c1.334-1.988 3.363-2.702 5.509-2.702 2.725 0 4.928 1.196 6.184 3.203 1.45-2.393 3.905-3.203 6.36-3.203 4.406 0 7.383 2.953 7.383 7.294M167.363 57.337c0 3.03 2.126 5.152 4.967 5.152 2.86 0 4.987-2.122 4.987-5.152 0-3.03-2.126-5.152-4.987-5.152-2.841 0-4.967 2.123-4.967 5.152m15.115 0c0 5.635-4.311 9.841-10.148 9.841-5.818 0-10.109-4.206-10.109-9.84 0-5.635 4.291-9.842 10.109-9.842 5.837 0 10.148 4.207 10.148 9.841M203.61 54.79v11.906h-5.045V56.41c0-2.72-1.333-4.187-3.653-4.187-2.165 0-3.962 1.389-3.962 4.226v10.246h-5.045V47.998h4.91v2.2c1.333-1.988 3.363-2.702 5.508-2.702 4.252 0 7.287 2.953 7.287 7.294M212.12 55.581h8.292c-.464-2.412-1.894-3.743-4.078-3.743-2.396 0-3.769 1.408-4.214 3.743m13.356 1.737c0 .598-.039 1.254-.096 1.698H212.1c.503 2.701 2.436 3.879 4.813 3.879 1.624 0 3.363-.637 4.735-1.795l2.958 3.242c-2.146 1.949-4.813 2.836-7.983 2.836-5.721 0-9.722-3.917-9.722-9.783s3.866-9.899 9.47-9.899c5.393 0 9.104 3.994 9.104 9.822M236.249 51.683c-1.933 0-2.88.676-2.88 1.698 0 1.1 1.353 1.351 3.053 1.602l1.663.25c4.078.619 6.32 2.413 6.32 5.597 0 3.86-3.17 6.348-8.6 6.348-2.552 0-5.896-.501-8.331-2.2l1.99-3.82c1.586 1.061 3.576 1.833 6.379 1.833 2.339 0 3.46-.656 3.46-1.756 0-.907-.928-1.409-3.112-1.717l-1.527-.213c-4.31-.598-6.475-2.489-6.475-5.673 0-3.84 2.976-6.117 7.905-6.117 2.976 0 5.373.54 7.828 1.776l-1.701 3.917c-1.488-.714-3.866-1.525-5.972-1.525M251.733 55.581h8.292c-.464-2.412-1.894-3.743-4.078-3.743-2.397 0-3.77 1.408-4.214 3.743m13.356 1.737c0 .598-.039 1.254-.097 1.698h-13.278c.502 2.701 2.435 3.879 4.812 3.879 1.624 0 3.364-.637 4.736-1.795l2.957 3.242c-2.145 1.949-4.813 2.836-7.982 2.836-5.721 0-9.722-3.917-9.722-9.783s3.865-9.899 9.47-9.899c5.393 0 9.104 3.994 9.104 9.822M104.848 72.892c0 2.056-1.585 2.825-2.07 3.012-.486.188-2.178.68-3.56-.844l-7.675-8.457 13.305-19.297v25.586zM88.097 62.805l-6.924-7.63 18.044-19.884c1.383-1.524 3.075-1.033 3.56-.845.486.187 2.07.957 2.07 3.012 0 .678-.2 1.334-.568 1.878l-16.182 23.47zm-8.52 12.358a2.126 2.126 0 0 1-1.775.931c-.72 0-1.366-.34-1.774-.931l-5.61-8.137 7.384-8.137 7.385 8.137-5.61 8.137zm-28.26-35.84a3.369 3.369 0 0 1-.56-1.88c.009-2.044 1.586-2.81 2.07-2.997.216-.083.67-.227 1.228-.227.7 0 1.564.225 2.332 1.072l18.045 19.884-6.924 7.63-16.191-23.483zm5.07 35.737c-1.383 1.523-3.074 1.031-3.56.844-.486-.187-2.07-.956-2.07-3.012V47.305l13.305 19.298-7.675 8.457zm48.188-45.267a8.184 8.184 0 0 0-9.06 2.149l-17.713 19.52-17.713-19.52a8.183 8.183 0 0 0-9.06-2.15 8.15 8.15 0 0 0-5.207 6.708c-.01.062-.021.125-.027.19l-.008.11c0 .018-.002.035-.003.052a8.79 8.79 0 0 0-.023.602V72.892a8.161 8.161 0 0 0 5.268 7.665 8.182 8.182 0 0 0 9.06-2.15l6.883-7.583 4.941 7.166a7.151 7.151 0 0 0 5.89 3.091 7.152 7.152 0 0 0 5.888-3.09l4.942-7.167 6.883 7.584a8.184 8.184 0 0 0 9.06 2.15 8.161 8.161 0 0 0 5.267-7.666V37.458a8.161 8.161 0 0 0-5.268-7.665z"/>
        </g>
        <use stroke="#3E83FF" stroke-dasharray="50" stroke-width="12" mask="url(#b)" xlink:href="#a"/>
    </g>
</svg>
