<svg xmlns="http://www.w3.org/2000/svg" xmlns:xlink="http://www.w3.org/1999/xlink" width="100" height="109" viewBox="0 0 100 109">
    <path fill="#388DFF" d="M77.087 72.659c0 2.055-1.585 2.825-2.07 3.012-.486.187-2.178.679-3.56-.845l-7.675-8.457 13.305-19.296v25.586zM60.336 62.572l-6.924-7.63 18.044-19.885c1.383-1.524 3.075-1.032 3.56-.845.486.187 2.071.957 2.071 3.012 0 .679-.201 1.334-.569 1.878l-16.182 23.47zm-8.52 12.357a2.126 2.126 0 0 1-1.775.931c-.72 0-1.366-.339-1.774-.93l-5.61-8.137 7.384-8.138 7.385 8.138-5.61 8.136zm-28.26-35.84a3.369 3.369 0 0 1-.56-1.88c.009-2.044 1.586-2.81 2.07-2.997.216-.083.67-.226 1.228-.226.7 0 1.564.224 2.332 1.07L46.67 54.943l-6.924 7.63-16.191-23.483zm5.07 35.737c-1.383 1.524-3.074 1.032-3.56.845-.486-.187-2.07-.957-2.07-3.012V47.072L36.3 66.369l-7.675 8.457zM76.814 29.56a8.184 8.184 0 0 0-9.06 2.15L50.042 51.227l-17.713-19.52a8.183 8.183 0 0 0-9.06-2.149 8.15 8.15 0 0 0-5.207 6.707c-.01.063-.021.126-.027.19l-.008.11c0 .018-.002.035-.003.053a8.79 8.79 0 0 0-.023.6V72.66a8.161 8.161 0 0 0 5.268 7.665 8.182 8.182 0 0 0 9.06-2.15l6.883-7.584 4.941 7.167a7.151 7.151 0 0 0 5.89 3.09 7.152 7.152 0 0 0 5.888-3.09l4.942-7.167 6.883 7.585a8.184 8.184 0 0 0 9.06 2.149 8.161 8.161 0 0 0 5.267-7.665V37.225a8.161 8.161 0 0 0-5.268-7.666z"/>
</svg>
