<svg width="2180" height="1000" xmlns="http://www.w3.org/2000/svg">
 <!-- Created with SVG-edit - http://svg-edit.googlecode.com/ -->
 <g>
  <title>Layer 1</title>
  <path id="svg_1" d="m0.63909,539.19098l1.2599,55.80902l650.01398,-201.30099l122.08704,-395.75653l-771.3391,-1.94248l-2.02184,543.19098l0.00003,0z" stroke-width="0" stroke="#000000" fill="#97CFEF"/>
  <path id="svg_2" d="m807.00006,4.39996l250.54474,312.60004l348.4552,-323.66663l-468.53186,-5.33337l-253.46808,314.39996l123,-298z" stroke-width="0" stroke="#000000" fill="#8befea"/>
  <path id="svg_3" d="m1327.06006,-16.989l-76.06006,320.72099l56.28003,410.91003l720.25,123.35797l158.46997,-110.54303l-3.37012,-754.45695l-391.11987,8.29074l-137.44995,6.72024l-54,-1l-273,-4z" stroke-width="0" stroke="#000000" fill="#FDBAF1"/>
  <path transform="rotate(-104.83, 483.652, 622.807)" id="svg_4" d="m512.72546,282.02087l-137.13708,457.27002l216.12793,224.30255l-78.99084,-681.57257l0,-0.00003l0,0.00003z" stroke-width="0" stroke="#000000" fill="#CD8E3C" opacity="0.9"/>
 </g>
</svg>