<svg width="206" height="64" viewBox="0 0 206 64" fill="none"><path d="M1.925 31.58H10.34V56H17.49V18.655H11.165C11.165 24.705 7.59 26.245 1.925 26.245V31.58Z" fill="#F9A606"></path><path fill-rule="evenodd" clip-rule="evenodd" d="M37.1994 18.843H52.1622C61.2636 18.843 68.1626 23.735 70.7292 30.8534H75.3902V35.1559H71.7107C71.7828 35.8357 71.8195 36.5284 71.8195 37.2321V37.3378C71.8195 38.1301 71.773 38.9089 71.682 39.6717H75.3902V43.9742H70.6405C68.0063 50.9936 61.1607 55.8389 52.1622 55.8389H37.1994V43.9742H32V39.6717H37.1994V35.1559H32V30.8534H37.1994V18.843ZM41.3824 43.9742V51.9793H52.1622C58.8144 51.9793 63.7566 48.7732 66.0572 43.9742H41.3824ZM67.3386 39.6717H41.3824V35.1559H67.3453C67.4416 35.8665 67.4907 36.595 67.4907 37.3378V37.4435C67.4907 38.2034 67.4393 38.9473 67.3386 39.6717ZM52.1622 22.6963C58.845 22.6963 63.802 25.987 66.0888 30.8534H41.3824V22.6963H52.1622Z" fill="#F9A606"></path><path d="M188.071 31.58H196.486V56H203.636V18.655H197.311C197.311 24.705 193.736 26.245 188.071 26.245V31.58Z" fill="#1AAB9B"></path><path d="M174.23 27.7797C173.57 26.8266 172.689 26.1399 171.587 25.7194C170.486 25.2709 169.338 25.0467 168.142 25.0467C167.261 25.0467 166.396 25.1448 165.546 25.341C164.697 25.5372 163.926 25.8315 163.234 26.224C162.573 26.6164 162.038 27.135 161.629 27.7797C161.22 28.4244 161.016 29.1812 161.016 30.0502C161.016 30.7229 161.126 31.3256 161.346 31.8581C161.598 32.3627 161.991 32.8252 162.526 33.2457C163.061 33.6661 163.785 34.0586 164.697 34.423C165.609 34.7874 166.726 35.1518 168.048 35.5162C169.338 35.8806 170.581 36.273 171.776 36.6934C173.003 37.1139 174.073 37.6465 174.985 38.2912C175.929 38.9359 176.669 39.7488 177.203 40.7299C177.77 41.6829 178.053 42.8882 178.053 44.3458C178.053 45.8315 177.723 47.1209 177.062 48.2141C176.401 49.3073 175.52 50.2183 174.419 50.9471C173.349 51.6478 172.106 52.1664 170.691 52.5028C169.275 52.8672 167.812 53.0494 166.302 53.0494C165.326 53.0494 164.351 52.9653 163.376 52.7971C162.4 52.6569 161.456 52.4327 160.544 52.1244C159.663 51.788 158.829 51.3675 158.043 50.863C157.256 50.3304 156.58 49.6857 156.013 48.9289L159.411 46.4481C160.135 47.5413 161.142 48.3682 162.432 48.9289C163.722 49.4895 165.09 49.7698 166.538 49.7698C167.387 49.7698 168.237 49.6577 169.086 49.4334C169.967 49.2092 170.754 48.8868 171.446 48.4664C172.138 48.0179 172.704 47.4713 173.145 46.8266C173.585 46.1819 173.805 45.439 173.805 44.5981C173.805 43.6731 173.632 42.9303 173.286 42.3697C172.94 41.781 172.405 41.2765 171.682 40.856C170.958 40.4356 170.046 40.0571 168.944 39.7208C167.843 39.3844 166.553 38.992 165.075 38.5435C163.879 38.2071 162.778 37.8287 161.771 37.4082C160.764 36.9597 159.883 36.4272 159.128 35.8105C158.404 35.1658 157.822 34.4089 157.382 33.54C156.973 32.643 156.768 31.5778 156.768 30.3445C156.768 28.9149 157.083 27.6676 157.712 26.6024C158.341 25.5372 159.191 24.6543 160.261 23.9535C161.33 23.2247 162.542 22.6781 163.895 22.3137C165.248 21.9493 166.663 21.7671 168.142 21.7671C170.03 21.7671 171.745 22.0334 173.286 22.566C174.859 23.0705 176.26 23.9675 177.487 25.2569L174.23 27.7797Z" fill="#1AAB9B"></path><rect x="165.256" y="19" width="3.55481" height="36.97" fill="#1AAB9B"></rect><path d="M102.693 31.9667C102.693 31.5801 103.007 31.2667 103.393 31.2667H129.3C129.687 31.2667 130 31.5801 130 31.9667V34.5667C130 34.9533 129.687 35.2667 129.3 35.2667H103.393C103.007 35.2667 102.693 34.9533 102.693 34.5667V31.9667Z" fill="#9FAFB9"></path><rect x="102.813" y="41.2134" width="27.3067" height="4" rx="0.7" fill="#9FAFB9"></rect></svg>