<svg xmlns="http://www.w3.org/2000/svg" fill="none" viewBox="0 0 2803 2796">
  <path fill="url(#a)" d="M2693.14 1941.36c-74.69 170.91-171.34 319.91-298.75 446.99-127.41 127.09-276.78 227.88-448.12 298-171.34 70.12-351.47 109.56-544.78 109.56-193.31 0-373.44-35.06-544.781-109.56-171.342-74.5-320.717-170.91-448.125-298-127.408-127.08-228.456-276.08-298.75-446.99C35.147 1770.45 0 1590.77 0 1397.95s35.147-372.49 109.834-543.402c74.688-170.909 171.342-319.907 298.75-446.994 127.408-127.087 276.783-227.88 448.125-297.997C1028.05 39.441 1208.18 0 1401.49 0c193.31 0 373.44 35.058 544.78 109.557 171.34 74.5 320.71 170.91 448.12 297.997 127.41 127.087 228.46 276.085 298.75 446.994 74.69 170.912 109.84 350.582 109.84 543.402 0 192.82-35.15 376.88-109.84 543.41Zm-667.79-828.26c-30.75-87.64-74.69-166.523-131.8-236.64-57.12-65.735-127.41-118.322-206.49-157.763-83.48-39.441-175.74-56.97-281.18-56.97s-197.7 17.529-281.17 56.97c-83.48 39.441-149.379 92.028-206.493 157.763-57.114 65.734-101.048 144.62-127.409 236.64-30.753 87.65-43.933 184.06-43.933 284.85 0 100.8 13.18 197.21 43.933 284.85 30.754 87.65 70.295 166.53 127.409 232.26 57.114 65.74 127.403 118.33 206.493 157.77 83.47 39.44 175.73 56.97 281.17 56.97 105.44 0 202.1-17.53 281.18-56.97 83.47-39.44 149.37-92.03 206.49-157.77 57.11-65.73 101.05-144.61 131.8-232.26 30.75-87.64 43.93-184.05 43.93-284.85 0-100.79-13.18-192.82-43.93-284.85Z"/>
  <defs>
    <radialGradient id="a" cx="0" cy="0" r="1" gradientTransform="matrix(1201.99699 751.99858 -445.36497 711.87283 1401 1827)" gradientUnits="userSpaceOnUse">
      <stop stop-color="#00A4FF"/>
      <stop offset=".176" stop-color="#00A4FF"/>
      <stop offset="1" stop-color="#00A4FF" stop-opacity="0"/>
    </radialGradient>
  </defs>
</svg>
